<?xml version="1.0" standalone="no"?>
<svg viewBox="0 0 200 200" xmlns="http://www.w3.org/2000/svg">
  <path fill="#4F6F52" d="M21,-36.5C29,-31.7,38.6,-29.7,49.6,-24.1C60.7,-18.5,73.2,-9.3,74.9,0.9C76.5,11.2,67.3,22.3,58.8,32.5C50.4,42.6,42.7,51.7,33.1,54.4C23.4,57.1,11.7,53.4,2.5,49C-6.7,44.7,-13.3,39.7,-27.4,39.5C-41.5,39.4,-62.9,44,-69.5,38.2C-76,32.5,-67.7,16.2,-60.2,4.3C-52.8,-7.6,-46.1,-15.2,-42.4,-25.8C-38.6,-36.4,-37.7,-50.1,-31.1,-55.7C-24.5,-61.3,-12.3,-59,-2.9,-54C6.5,-49,12.9,-41.3,21,-36.5Z" transform="translate(100 100)" />
</svg>
