<svg xmlns="http://www.w3.org/2000/svg" version="1.1" xmlns:xlink="http://www.w3.org/1999/xlink" xmlns:svgjs="http://svgjs.dev/svgjs" width="1440" height="560" preserveAspectRatio="none" viewBox="0 0 1440 560"><g mask="url(&quot;#SvgjsMask1029&quot;)" fill="none"><rect width="1440" height="560" x="0" y="0" fill="rgba(79, 111, 82, 1)"></rect><path d="M0,397.337C73.549,379.037,88.526,277.493,148.817,231.564C201.753,191.238,283.147,199.754,326.094,148.922C373.443,92.879,412.483,14.102,392.091,-56.374C371.588,-127.233,283.477,-149.493,226.274,-196.068C180.344,-233.465,142.332,-277.357,89.011,-303.144C27.55,-332.868,-38.832,-374.561,-104.549,-356.063C-170.312,-337.553,-209.841,-270.05,-242.244,-209.905C-270.239,-157.94,-272.313,-98.511,-275.068,-39.549C-277.579,14.195,-267.778,64.796,-257.545,117.617C-244.041,187.326,-253.565,267.481,-205.47,319.717C-154.853,374.692,-72.517,415.381,0,397.337" fill="#4b6a4e"></path><path d="M1440 1163.9160000000002C1549.895 1147.3229999999999 1632.478 1064.283 1720.346 996.2280000000001 1800.684 934.005 1889.2440000000001 876.8679999999999 1930.51 784.008 1971.583 691.583 1964.787 586.652 1946.569 487.166 1928.871 390.515 1893.079 297.411 1827.935 223.85199999999998 1763.214 150.76999999999998 1668.295 121.733 1582.196 75.72399999999999 1471.712 16.684999999999945 1369.009-125.85400000000004 1250.732-84.58699999999999 1130.379-42.59500000000003 1153.24 144.161 1082.373 250.11399999999998 1023.881 337.565 894.236 375.376 874.025 478.625 853.76 582.151 944.1600000000001 670.8 980.649 769.779 1020.8389999999999 878.799 1011.22 1014.3199999999999 1099.401 1089.982 1189.393 1167.1979999999999 1322.75 1181.6190000000001 1440 1163.9160000000002" fill="#537556"></path></g><defs><mask id="SvgjsMask1029"><rect width="1440" height="560" fill="#ffffff"></rect></mask></defs></svg>